%TF.GenerationSoftware,KiCad,Pcbnew,10.0.3*%
%TF.CreationDate,2026-07-02T21:06:42+08:00*%
%TF.ProjectId,biking_leds,62696b69-6e67-45f6-9c65-64732e6b6963,rev?*%
%TF.SameCoordinates,Original*%
%TF.FileFunction,Copper,L2,Bot*%
%TF.FilePolarity,Positive*%
%FSLAX46Y46*%
G04 Gerber Fmt 4.6, Leading zero omitted, Abs format (unit mm)*
G04 Created by KiCad (PCBNEW 10.0.3) date 2026-07-02 21:06:42*
%MOMM*%
%LPD*%
G01*
G04 APERTURE LIST*
%TA.AperFunction,ComponentPad*%
%ADD10C,1.600000*%
%TD*%
%TA.AperFunction,ComponentPad*%
%ADD11C,1.800000*%
%TD*%
%TA.AperFunction,ComponentPad*%
%ADD12R,1.800000X1.800000*%
%TD*%
%TA.AperFunction,ComponentPad*%
%ADD13C,2.000000*%
%TD*%
%TA.AperFunction,ComponentPad*%
%ADD14R,2.000000X2.000000*%
%TD*%
%TA.AperFunction,ViaPad*%
%ADD15C,0.600000*%
%TD*%
%TA.AperFunction,Conductor*%
%ADD16C,0.250000*%
%TD*%
G04 APERTURE END LIST*
D10*
%TO.P,R1,2*%
%TO.N,GND*%
X121000000Y-54500000D03*
%TO.P,R1,1*%
%TO.N,Net-(D1-K)*%
X121000000Y-62120000D03*
%TD*%
D11*
%TO.P,D1,2,A_2*%
%TO.N,Net-(D1-A)*%
X115500000Y-60530000D03*
D12*
%TO.P,D1,1,K_1*%
%TO.N,Net-(D1-K)*%
X112960000Y-60530000D03*
%TD*%
D10*
%TO.P,R2,2*%
%TO.N,GND*%
X121000000Y-65000000D03*
%TO.P,R2,1*%
%TO.N,Net-(D2-K)*%
X121000000Y-72620000D03*
%TD*%
%TO.P,R3,2*%
%TO.N,GND*%
X121000000Y-75500000D03*
%TO.P,R3,1*%
%TO.N,Net-(D3-K)*%
X121000000Y-83120000D03*
%TD*%
D11*
%TO.P,D2,2,A_2*%
%TO.N,Net-(D1-A)*%
X115500000Y-68000000D03*
D12*
%TO.P,D2,1,K_1*%
%TO.N,Net-(D2-K)*%
X112960000Y-68000000D03*
%TD*%
D11*
%TO.P,D3,2,A_2*%
%TO.N,Net-(D1-A)*%
X115500000Y-75470000D03*
D12*
%TO.P,D3,1,K_1*%
%TO.N,Net-(D3-K)*%
X112960000Y-75470000D03*
%TD*%
D13*
%TO.P,BZ1,2,-_2*%
%TO.N,GND*%
X107100000Y-82500000D03*
D14*
%TO.P,BZ1,1,+_1*%
%TO.N,Net-(BZ1-+)*%
X99500000Y-82500000D03*
%TD*%
D15*
%TO.N,GND*%
X108000000Y-85000000D03*
X109500000Y-81500000D03*
X107000000Y-80000000D03*
X102000000Y-74000000D03*
X104000000Y-70500000D03*
X104500000Y-74000000D03*
X103500000Y-35000000D03*
X120000000Y-49500000D03*
X104500000Y-54500000D03*
X102000000Y-51500000D03*
X114500000Y-34000000D03*
X117500000Y-35000000D03*
X123500000Y-75500000D03*
X123000000Y-65000000D03*
X123000000Y-54000000D03*
X104000000Y-58000000D03*
X102000000Y-59500000D03*
X103000000Y-66000000D03*
X100000000Y-66000000D03*
%TD*%
%TO.N,Net-(D1-A)*%
D16*
X115500000Y-60530000D02*
X115500000Y-68000000D01*
X115500000Y-68000000D02*
X115500000Y-75470000D01*
%TD*%
%TA.AperFunction,Conductor*%
%TO.N,GND*%
G36*
X126392539Y-29570185D02*
G01*
X126438294Y-29622989D01*
X126449500Y-29674500D01*
X126449500Y-93325500D01*
X126429815Y-93392539D01*
X126377011Y-93438294D01*
X126325500Y-93449500D01*
X93174500Y-93449500D01*
X93107461Y-93429815D01*
X93061706Y-93377011D01*
X93050500Y-93325500D01*
X93050500Y-81451345D01*
X97991500Y-81451345D01*
X97991500Y-83548654D01*
X97998011Y-83609202D01*
X97998011Y-83609204D01*
X98040329Y-83722658D01*
X98049111Y-83746204D01*
X98136739Y-83863261D01*
X98253796Y-83950889D01*
X98390799Y-84001989D01*
X98418050Y-84004918D01*
X98451345Y-84008499D01*
X98451362Y-84008500D01*
X100548638Y-84008500D01*
X100548654Y-84008499D01*
X100575692Y-84005591D01*
X100609201Y-84001989D01*
X100746204Y-83950889D01*
X100863261Y-83863261D01*
X100950889Y-83746204D01*
X100978437Y-83672345D01*
X100993462Y-83632064D01*
X101001988Y-83609204D01*
X101001988Y-83609203D01*
X101001989Y-83609201D01*
X101005591Y-83575692D01*
X101008499Y-83548654D01*
X101008500Y-83548637D01*
X101008500Y-82381947D01*
X105600000Y-82381947D01*
X105600000Y-82618052D01*
X105636934Y-82851247D01*
X105709897Y-83075802D01*
X105817087Y-83286174D01*
X105877338Y-83369104D01*
X105877340Y-83369105D01*
X106617037Y-82629408D01*
X106634075Y-82692993D01*
X106699901Y-82807007D01*
X106792993Y-82900099D01*
X106907007Y-82965925D01*
X106970590Y-82982962D01*
X106230893Y-83722658D01*
X106313828Y-83782914D01*
X106524197Y-83890102D01*
X106748752Y-83963065D01*
X106748751Y-83963065D01*
X106981948Y-84000000D01*
X107218052Y-84000000D01*
X107451247Y-83963065D01*
X107675802Y-83890102D01*
X107886163Y-83782918D01*
X107886169Y-83782914D01*
X107969104Y-83722658D01*
X107969105Y-83722658D01*
X107229408Y-82982962D01*
X107292993Y-82965925D01*
X107407007Y-82900099D01*
X107500099Y-82807007D01*
X107565925Y-82692993D01*
X107582962Y-82629409D01*
X108322658Y-83369105D01*
X108322658Y-83369104D01*
X108382914Y-83286169D01*
X108382918Y-83286163D01*
X108490102Y-83075802D01*
X108509202Y-83017019D01*
X119691500Y-83017019D01*
X119691500Y-83222980D01*
X119723719Y-83426408D01*
X119787367Y-83622294D01*
X119838506Y-83722658D01*
X119869210Y-83782918D01*
X119880873Y-83805806D01*
X120001926Y-83972423D01*
X120001930Y-83972428D01*
X120147571Y-84118069D01*
X120147576Y-84118073D01*
X120292908Y-84223661D01*
X120314197Y-84239129D01*
X120431128Y-84298709D01*
X120497705Y-84332632D01*
X120497707Y-84332632D01*
X120497710Y-84332634D01*
X120602707Y-84366749D01*
X120693591Y-84396280D01*
X120795305Y-84412390D01*
X120897019Y-84428500D01*
X120897020Y-84428500D01*
X121102980Y-84428500D01*
X121102981Y-84428500D01*
X121306408Y-84396280D01*
X121502290Y-84332634D01*
X121685803Y-84239129D01*
X121852430Y-84118068D01*
X121998068Y-83972430D01*
X122119129Y-83805803D01*
X122212634Y-83622290D01*
X122276280Y-83426408D01*
X122308500Y-83222981D01*
X122308500Y-83017019D01*
X122289982Y-82900099D01*
X122276280Y-82813591D01*
X122212632Y-82617705D01*
X122152657Y-82499999D01*
X122119129Y-82434197D01*
X122026721Y-82307007D01*
X121998073Y-82267576D01*
X121998069Y-82267571D01*
X121852428Y-82121930D01*
X121852423Y-82121926D01*
X121685806Y-82000873D01*
X121685805Y-82000872D01*
X121685803Y-82000871D01*
X121628496Y-81971671D01*
X121502294Y-81907367D01*
X121306408Y-81843719D01*
X121130794Y-81815905D01*
X121102981Y-81811500D01*
X120897019Y-81811500D01*
X120872550Y-81815375D01*
X120693591Y-81843719D01*
X120497705Y-81907367D01*
X120314193Y-82000873D01*
X120147576Y-82121926D01*
X120147571Y-82121930D01*
X120001930Y-82267571D01*
X120001926Y-82267576D01*
X119880873Y-82434193D01*
X119787367Y-82617705D01*
X119723719Y-82813591D01*
X119691500Y-83017019D01*
X108509202Y-83017019D01*
X108523236Y-82973829D01*
X108523236Y-82973828D01*
X108563065Y-82851245D01*
X108600000Y-82618052D01*
X108600000Y-82381947D01*
X108563065Y-82148752D01*
X108490102Y-81924197D01*
X108382914Y-81713828D01*
X108322658Y-81630894D01*
X108322658Y-81630893D01*
X107582962Y-82370590D01*
X107565925Y-82307007D01*
X107500099Y-82192993D01*
X107407007Y-82099901D01*
X107292993Y-82034075D01*
X107229409Y-82017037D01*
X107969105Y-81277340D01*
X107969104Y-81277338D01*
X107886174Y-81217087D01*
X107675802Y-81109897D01*
X107451247Y-81036934D01*
X107451248Y-81036934D01*
X107218052Y-81000000D01*
X106981948Y-81000000D01*
X106748752Y-81036934D01*
X106524197Y-81109897D01*
X106313830Y-81217084D01*
X106230894Y-81277340D01*
X106970591Y-82017037D01*
X106907007Y-82034075D01*
X106792993Y-82099901D01*
X106699901Y-82192993D01*
X106634075Y-82307007D01*
X106617037Y-82370591D01*
X105877340Y-81630894D01*
X105817084Y-81713830D01*
X105709897Y-81924197D01*
X105636934Y-82148752D01*
X105600000Y-82381947D01*
X101008500Y-82381947D01*
X101008500Y-81451362D01*
X101008499Y-81451345D01*
X101001989Y-81390798D01*
X100993461Y-81367935D01*
X100993460Y-81367932D01*
X100950889Y-81253796D01*
X100923409Y-81217087D01*
X100863261Y-81136739D01*
X100746204Y-81049111D01*
X100713557Y-81036934D01*
X100609203Y-80998011D01*
X100548654Y-80991500D01*
X100548638Y-80991500D01*
X98451362Y-80991500D01*
X98451345Y-80991500D01*
X98390797Y-80998011D01*
X98390795Y-80998011D01*
X98253795Y-81049111D01*
X98136739Y-81136739D01*
X98049111Y-81253795D01*
X97998011Y-81390795D01*
X97998011Y-81390797D01*
X97991500Y-81451345D01*
X93050500Y-81451345D01*
X93050500Y-59581345D01*
X111551500Y-59581345D01*
X111551500Y-61478654D01*
X111558011Y-61539202D01*
X111558011Y-61539204D01*
X111609111Y-61676204D01*
X111696739Y-61793261D01*
X111813796Y-61880889D01*
X111950799Y-61931989D01*
X111978050Y-61934918D01*
X112011345Y-61938499D01*
X112011362Y-61938500D01*
X113908638Y-61938500D01*
X113908654Y-61938499D01*
X113935692Y-61935591D01*
X113969201Y-61931989D01*
X114106204Y-61880889D01*
X114223261Y-61793261D01*
X114310889Y-61676204D01*
X114336748Y-61606872D01*
X114378617Y-61550942D01*
X114444081Y-61526525D01*
X114512354Y-61541376D01*
X114540609Y-61562528D01*
X114582424Y-61604343D01*
X114681332Y-61676204D01*
X114761780Y-61734654D01*
X114761782Y-61734655D01*
X114761785Y-61734657D01*
X114798795Y-61753514D01*
X114849590Y-61801486D01*
X114866500Y-61863998D01*
X114866500Y-66666000D01*
X114846815Y-66733039D01*
X114798796Y-66776484D01*
X114761787Y-66795341D01*
X114681334Y-66853794D01*
X114582424Y-66925657D01*
X114582422Y-66925659D01*
X114582420Y-66925660D01*
X114540608Y-66967472D01*
X114479285Y-67000957D01*
X114409593Y-66995971D01*
X114353660Y-66954099D01*
X114336748Y-66923128D01*
X114310889Y-66853796D01*
X114223261Y-66736739D01*
X114106204Y-66649111D01*
X113969203Y-66598011D01*
X113908654Y-66591500D01*
X113908638Y-66591500D01*
X112011362Y-66591500D01*
X112011345Y-66591500D01*
X111950797Y-66598011D01*
X111950795Y-66598011D01*
X111813795Y-66649111D01*
X111696739Y-66736739D01*
X111609111Y-66853795D01*
X111558011Y-66990795D01*
X111558011Y-66990797D01*
X111551500Y-67051345D01*
X111551500Y-68948654D01*
X111558011Y-69009202D01*
X111558011Y-69009204D01*
X111609111Y-69146204D01*
X111696739Y-69263261D01*
X111813796Y-69350889D01*
X111950799Y-69401989D01*
X111978050Y-69404918D01*
X112011345Y-69408499D01*
X112011362Y-69408500D01*
X113908638Y-69408500D01*
X113908654Y-69408499D01*
X113935692Y-69405591D01*
X113969201Y-69401989D01*
X114106204Y-69350889D01*
X114223261Y-69263261D01*
X114310889Y-69146204D01*
X114336748Y-69076872D01*
X114378617Y-69020942D01*
X114444081Y-68996525D01*
X114512354Y-69011376D01*
X114540609Y-69032528D01*
X114582424Y-69074343D01*
X114681332Y-69146204D01*
X114761780Y-69204654D01*
X114761782Y-69204655D01*
X114761785Y-69204657D01*
X114798795Y-69223514D01*
X114849590Y-69271486D01*
X114866500Y-69333998D01*
X114866500Y-74136000D01*
X114846815Y-74203039D01*
X114798796Y-74246484D01*
X114761787Y-74265341D01*
X114720630Y-74295244D01*
X114582424Y-74395657D01*
X114582422Y-74395659D01*
X114582420Y-74395660D01*
X114540608Y-74437472D01*
X114479285Y-74470957D01*
X114409593Y-74465971D01*
X114353660Y-74424099D01*
X114336748Y-74393128D01*
X114310889Y-74323796D01*
X114223261Y-74206739D01*
X114106204Y-74119111D01*
X113969203Y-74068011D01*
X113908654Y-74061500D01*
X113908638Y-74061500D01*
X112011362Y-74061500D01*
X112011345Y-74061500D01*
X111950797Y-74068011D01*
X111950795Y-74068011D01*
X111813795Y-74119111D01*
X111696739Y-74206739D01*
X111609111Y-74323795D01*
X111558011Y-74460795D01*
X111558011Y-74460797D01*
X111551500Y-74521345D01*
X111551500Y-76418654D01*
X111558011Y-76479202D01*
X111558011Y-76479204D01*
X111595411Y-76579474D01*
X111609111Y-76616204D01*
X111696739Y-76733261D01*
X111813796Y-76820889D01*
X111950799Y-76871989D01*
X111978050Y-76874918D01*
X112011345Y-76878499D01*
X112011362Y-76878500D01*
X113908638Y-76878500D01*
X113908654Y-76878499D01*
X113935692Y-76875591D01*
X113969201Y-76871989D01*
X114106204Y-76820889D01*
X114223261Y-76733261D01*
X114310889Y-76616204D01*
X114336748Y-76546872D01*
X114378617Y-76490942D01*
X114444081Y-76466525D01*
X114512354Y-76481376D01*
X114540609Y-76502528D01*
X114582424Y-76544343D01*
X114761785Y-76674657D01*
X114820856Y-76704755D01*
X114959319Y-76775306D01*
X114959321Y-76775306D01*
X114959324Y-76775308D01*
X115170176Y-76843818D01*
X115389149Y-76878500D01*
X115389150Y-76878500D01*
X115610850Y-76878500D01*
X115610851Y-76878500D01*
X115829824Y-76843818D01*
X116040676Y-76775308D01*
X116238215Y-76674657D01*
X116417576Y-76544343D01*
X116574343Y-76387576D01*
X116704657Y-76208215D01*
X116805308Y-76010676D01*
X116873818Y-75799824D01*
X116908500Y-75580851D01*
X116908500Y-75397682D01*
X119700000Y-75397682D01*
X119700000Y-75602317D01*
X119732009Y-75804417D01*
X119795244Y-75999031D01*
X119888141Y-76181350D01*
X119888147Y-76181359D01*
X119920523Y-76225921D01*
X119920524Y-76225922D01*
X120600000Y-75546446D01*
X120600000Y-75552661D01*
X120627259Y-75654394D01*
X120679920Y-75745606D01*
X120754394Y-75820080D01*
X120845606Y-75872741D01*
X120947339Y-75900000D01*
X120953553Y-75900000D01*
X120274076Y-76579474D01*
X120318650Y-76611859D01*
X120500968Y-76704755D01*
X120695582Y-76767990D01*
X120897683Y-76800000D01*
X121102317Y-76800000D01*
X121304417Y-76767990D01*
X121499031Y-76704755D01*
X121681349Y-76611859D01*
X121725921Y-76579474D01*
X121046447Y-75900000D01*
X121052661Y-75900000D01*
X121154394Y-75872741D01*
X121245606Y-75820080D01*
X121320080Y-75745606D01*
X121372741Y-75654394D01*
X121400000Y-75552661D01*
X121400000Y-75546448D01*
X122079474Y-76225922D01*
X122079474Y-76225921D01*
X122111859Y-76181349D01*
X122204755Y-75999031D01*
X122267990Y-75804417D01*
X122300000Y-75602317D01*
X122300000Y-75397682D01*
X122267990Y-75195582D01*
X122204755Y-75000968D01*
X122111859Y-74818650D01*
X122079474Y-74774077D01*
X122079474Y-74774076D01*
X121400000Y-75453551D01*
X121400000Y-75447339D01*
X121372741Y-75345606D01*
X121320080Y-75254394D01*
X121245606Y-75179920D01*
X121154394Y-75127259D01*
X121052661Y-75100000D01*
X121046446Y-75100000D01*
X121725922Y-74420524D01*
X121725921Y-74420523D01*
X121681359Y-74388147D01*
X121681350Y-74388141D01*
X121499031Y-74295244D01*
X121304417Y-74232009D01*
X121102317Y-74200000D01*
X120897683Y-74200000D01*
X120695582Y-74232009D01*
X120500968Y-74295244D01*
X120318644Y-74388143D01*
X120274077Y-74420523D01*
X120274077Y-74420524D01*
X120953554Y-75100000D01*
X120947339Y-75100000D01*
X120845606Y-75127259D01*
X120754394Y-75179920D01*
X120679920Y-75254394D01*
X120627259Y-75345606D01*
X120600000Y-75447339D01*
X120600000Y-75453553D01*
X119920524Y-74774077D01*
X119920523Y-74774077D01*
X119888143Y-74818644D01*
X119795244Y-75000968D01*
X119732009Y-75195582D01*
X119700000Y-75397682D01*
X116908500Y-75397682D01*
X116908500Y-75359149D01*
X116873818Y-75140176D01*
X116805308Y-74929324D01*
X116805306Y-74929321D01*
X116805306Y-74929319D01*
X116704656Y-74731784D01*
X116574343Y-74552424D01*
X116417576Y-74395657D01*
X116238215Y-74265343D01*
X116238214Y-74265342D01*
X116238212Y-74265341D01*
X116201204Y-74246484D01*
X116150408Y-74198509D01*
X116133500Y-74136000D01*
X116133500Y-72517019D01*
X119691500Y-72517019D01*
X119691500Y-72722980D01*
X119723719Y-72926408D01*
X119787367Y-73122294D01*
X119880873Y-73305806D01*
X120001926Y-73472423D01*
X120001930Y-73472428D01*
X120147571Y-73618069D01*
X120147576Y-73618073D01*
X120292908Y-73723661D01*
X120314197Y-73739129D01*
X120431128Y-73798709D01*
X120497705Y-73832632D01*
X120497707Y-73832632D01*
X120497710Y-73832634D01*
X120602707Y-73866749D01*
X120693591Y-73896280D01*
X120795305Y-73912390D01*
X120897019Y-73928500D01*
X120897020Y-73928500D01*
X121102980Y-73928500D01*
X121102981Y-73928500D01*
X121306408Y-73896280D01*
X121502290Y-73832634D01*
X121685803Y-73739129D01*
X121852430Y-73618068D01*
X121998068Y-73472430D01*
X122119129Y-73305803D01*
X122212634Y-73122290D01*
X122276280Y-72926408D01*
X122308500Y-72722981D01*
X122308500Y-72517019D01*
X122276280Y-72313592D01*
X122212634Y-72117710D01*
X122212632Y-72117707D01*
X122212632Y-72117705D01*
X122178709Y-72051128D01*
X122119129Y-71934197D01*
X122103661Y-71912908D01*
X121998073Y-71767576D01*
X121998069Y-71767571D01*
X121852428Y-71621930D01*
X121852423Y-71621926D01*
X121685806Y-71500873D01*
X121685805Y-71500872D01*
X121685803Y-71500871D01*
X121628496Y-71471671D01*
X121502294Y-71407367D01*
X121306408Y-71343719D01*
X121130794Y-71315905D01*
X121102981Y-71311500D01*
X120897019Y-71311500D01*
X120872550Y-71315375D01*
X120693591Y-71343719D01*
X120497705Y-71407367D01*
X120314193Y-71500873D01*
X120147576Y-71621926D01*
X120147571Y-71621930D01*
X120001930Y-71767571D01*
X120001926Y-71767576D01*
X119880873Y-71934193D01*
X119787367Y-72117705D01*
X119723719Y-72313591D01*
X119691500Y-72517019D01*
X116133500Y-72517019D01*
X116133500Y-69333998D01*
X116153185Y-69266959D01*
X116201204Y-69223514D01*
X116238215Y-69204657D01*
X116417576Y-69074343D01*
X116574343Y-68917576D01*
X116704657Y-68738215D01*
X116805308Y-68540676D01*
X116873818Y-68329824D01*
X116908500Y-68110851D01*
X116908500Y-67889149D01*
X116873818Y-67670176D01*
X116805308Y-67459324D01*
X116805306Y-67459321D01*
X116805306Y-67459319D01*
X116704656Y-67261784D01*
X116574343Y-67082424D01*
X116417576Y-66925657D01*
X116238215Y-66795343D01*
X116238214Y-66795342D01*
X116238212Y-66795341D01*
X116201204Y-66776484D01*
X116150408Y-66728509D01*
X116133500Y-66666000D01*
X116133500Y-64897682D01*
X119700000Y-64897682D01*
X119700000Y-65102317D01*
X119732009Y-65304417D01*
X119795244Y-65499031D01*
X119888141Y-65681350D01*
X119888147Y-65681359D01*
X119920523Y-65725921D01*
X119920524Y-65725922D01*
X120600000Y-65046446D01*
X120600000Y-65052661D01*
X120627259Y-65154394D01*
X120679920Y-65245606D01*
X120754394Y-65320080D01*
X120845606Y-65372741D01*
X120947339Y-65400000D01*
X120953553Y-65400000D01*
X120274076Y-66079474D01*
X120318650Y-66111859D01*
X120500968Y-66204755D01*
X120695582Y-66267990D01*
X120897683Y-66300000D01*
X121102317Y-66300000D01*
X121304417Y-66267990D01*
X121499031Y-66204755D01*
X121681349Y-66111859D01*
X121725921Y-66079474D01*
X121046447Y-65400000D01*
X121052661Y-65400000D01*
X121154394Y-65372741D01*
X121245606Y-65320080D01*
X121320080Y-65245606D01*
X121372741Y-65154394D01*
X121400000Y-65052661D01*
X121400000Y-65046447D01*
X122079474Y-65725921D01*
X122111859Y-65681349D01*
X122204755Y-65499031D01*
X122267990Y-65304417D01*
X122300000Y-65102317D01*
X122300000Y-64897682D01*
X122267990Y-64695582D01*
X122204755Y-64500968D01*
X122111859Y-64318650D01*
X122079474Y-64274077D01*
X122079474Y-64274076D01*
X121400000Y-64953551D01*
X121400000Y-64947339D01*
X121372741Y-64845606D01*
X121320080Y-64754394D01*
X121245606Y-64679920D01*
X121154394Y-64627259D01*
X121052661Y-64600000D01*
X121046446Y-64600000D01*
X121725922Y-63920524D01*
X121725921Y-63920523D01*
X121681359Y-63888147D01*
X121681350Y-63888141D01*
X121499031Y-63795244D01*
X121304417Y-63732009D01*
X121102317Y-63700000D01*
X120897683Y-63700000D01*
X120695582Y-63732009D01*
X120500968Y-63795244D01*
X120318644Y-63888143D01*
X120274077Y-63920523D01*
X120274077Y-63920524D01*
X120953554Y-64600000D01*
X120947339Y-64600000D01*
X120845606Y-64627259D01*
X120754394Y-64679920D01*
X120679920Y-64754394D01*
X120627259Y-64845606D01*
X120600000Y-64947339D01*
X120600000Y-64953553D01*
X119920524Y-64274077D01*
X119920523Y-64274077D01*
X119888143Y-64318644D01*
X119795244Y-64500968D01*
X119732009Y-64695582D01*
X119700000Y-64897682D01*
X116133500Y-64897682D01*
X116133500Y-62017019D01*
X119691500Y-62017019D01*
X119691500Y-62222980D01*
X119723719Y-62426408D01*
X119787367Y-62622294D01*
X119880873Y-62805806D01*
X120001926Y-62972423D01*
X120001930Y-62972428D01*
X120147571Y-63118069D01*
X120147576Y-63118073D01*
X120292908Y-63223661D01*
X120314197Y-63239129D01*
X120431128Y-63298709D01*
X120497705Y-63332632D01*
X120497707Y-63332632D01*
X120497710Y-63332634D01*
X120602707Y-63366749D01*
X120693591Y-63396280D01*
X120795305Y-63412390D01*
X120897019Y-63428500D01*
X120897020Y-63428500D01*
X121102980Y-63428500D01*
X121102981Y-63428500D01*
X121306408Y-63396280D01*
X121502290Y-63332634D01*
X121685803Y-63239129D01*
X121852430Y-63118068D01*
X121998068Y-62972430D01*
X122119129Y-62805803D01*
X122212634Y-62622290D01*
X122276280Y-62426408D01*
X122308500Y-62222981D01*
X122308500Y-62017019D01*
X122276280Y-61813592D01*
X122212634Y-61617710D01*
X122212632Y-61617707D01*
X122212632Y-61617705D01*
X122172631Y-61539201D01*
X122119129Y-61434197D01*
X121998537Y-61268215D01*
X121998073Y-61267576D01*
X121998069Y-61267571D01*
X121852428Y-61121930D01*
X121852423Y-61121926D01*
X121685806Y-61000873D01*
X121685805Y-61000872D01*
X121685803Y-61000871D01*
X121628496Y-60971671D01*
X121502294Y-60907367D01*
X121306408Y-60843719D01*
X121130794Y-60815905D01*
X121102981Y-60811500D01*
X120897019Y-60811500D01*
X120872550Y-60815375D01*
X120693591Y-60843719D01*
X120497705Y-60907367D01*
X120314193Y-61000873D01*
X120147576Y-61121926D01*
X120147571Y-61121930D01*
X120001930Y-61267571D01*
X120001926Y-61267576D01*
X119880873Y-61434193D01*
X119787367Y-61617705D01*
X119723719Y-61813591D01*
X119691500Y-62017019D01*
X116133500Y-62017019D01*
X116133500Y-61863998D01*
X116153185Y-61796959D01*
X116201204Y-61753514D01*
X116238215Y-61734657D01*
X116417576Y-61604343D01*
X116574343Y-61447576D01*
X116704657Y-61268215D01*
X116805308Y-61070676D01*
X116873818Y-60859824D01*
X116908500Y-60640851D01*
X116908500Y-60419149D01*
X116873818Y-60200176D01*
X116805308Y-59989324D01*
X116805306Y-59989321D01*
X116805306Y-59989319D01*
X116704656Y-59791784D01*
X116574343Y-59612424D01*
X116417576Y-59455657D01*
X116238215Y-59325343D01*
X116040680Y-59224693D01*
X115829824Y-59156182D01*
X115610851Y-59121500D01*
X115389149Y-59121500D01*
X115279662Y-59138841D01*
X115170175Y-59156182D01*
X114959319Y-59224693D01*
X114761784Y-59325343D01*
X114681334Y-59383794D01*
X114582424Y-59455657D01*
X114582422Y-59455659D01*
X114582420Y-59455660D01*
X114540608Y-59497472D01*
X114479285Y-59530957D01*
X114409593Y-59525971D01*
X114353660Y-59484099D01*
X114336748Y-59453128D01*
X114310889Y-59383796D01*
X114223261Y-59266739D01*
X114106204Y-59179111D01*
X114044730Y-59156182D01*
X113969203Y-59128011D01*
X113908654Y-59121500D01*
X113908638Y-59121500D01*
X112011362Y-59121500D01*
X112011345Y-59121500D01*
X111950797Y-59128011D01*
X111950795Y-59128011D01*
X111813795Y-59179111D01*
X111696739Y-59266739D01*
X111609111Y-59383795D01*
X111558011Y-59520795D01*
X111558011Y-59520797D01*
X111551500Y-59581345D01*
X93050500Y-59581345D01*
X93050500Y-54397682D01*
X119700000Y-54397682D01*
X119700000Y-54602317D01*
X119732009Y-54804417D01*
X119795244Y-54999031D01*
X119888141Y-55181350D01*
X119888147Y-55181359D01*
X119920523Y-55225921D01*
X119920524Y-55225922D01*
X120600000Y-54546446D01*
X120600000Y-54552661D01*
X120627259Y-54654394D01*
X120679920Y-54745606D01*
X120754394Y-54820080D01*
X120845606Y-54872741D01*
X120947339Y-54900000D01*
X120953553Y-54900000D01*
X120274076Y-55579474D01*
X120318650Y-55611859D01*
X120500968Y-55704755D01*
X120695582Y-55767990D01*
X120897683Y-55800000D01*
X121102317Y-55800000D01*
X121304417Y-55767990D01*
X121499031Y-55704755D01*
X121681349Y-55611859D01*
X121725921Y-55579474D01*
X121046447Y-54900000D01*
X121052661Y-54900000D01*
X121154394Y-54872741D01*
X121245606Y-54820080D01*
X121320080Y-54745606D01*
X121372741Y-54654394D01*
X121400000Y-54552661D01*
X121400000Y-54546447D01*
X122079474Y-55225921D01*
X122111859Y-55181349D01*
X122204755Y-54999031D01*
X122267990Y-54804417D01*
X122300000Y-54602317D01*
X122300000Y-54397682D01*
X122267990Y-54195582D01*
X122204755Y-54000968D01*
X122111859Y-53818650D01*
X122079474Y-53774077D01*
X122079474Y-53774076D01*
X121400000Y-54453551D01*
X121400000Y-54447339D01*
X121372741Y-54345606D01*
X121320080Y-54254394D01*
X121245606Y-54179920D01*
X121154394Y-54127259D01*
X121052661Y-54100000D01*
X121046446Y-54100000D01*
X121725922Y-53420524D01*
X121725921Y-53420523D01*
X121681359Y-53388147D01*
X121681350Y-53388141D01*
X121499031Y-53295244D01*
X121304417Y-53232009D01*
X121102317Y-53200000D01*
X120897683Y-53200000D01*
X120695582Y-53232009D01*
X120500968Y-53295244D01*
X120318644Y-53388143D01*
X120274077Y-53420523D01*
X120274077Y-53420524D01*
X120953554Y-54100000D01*
X120947339Y-54100000D01*
X120845606Y-54127259D01*
X120754394Y-54179920D01*
X120679920Y-54254394D01*
X120627259Y-54345606D01*
X120600000Y-54447339D01*
X120600000Y-54453553D01*
X119920524Y-53774077D01*
X119920523Y-53774077D01*
X119888143Y-53818644D01*
X119795244Y-54000968D01*
X119732009Y-54195582D01*
X119700000Y-54397682D01*
X93050500Y-54397682D01*
X93050500Y-29674500D01*
X93070185Y-29607461D01*
X93122989Y-29561706D01*
X93174500Y-29550500D01*
X126325500Y-29550500D01*
X126392539Y-29570185D01*
G37*
%TD.AperFunction*%
%TD*%
M02*
